<svg xmlns:mydata="http://www.w3.org/2000/svg" mydata:contrastcolor="eeeaf0" mydata:template="Contrast" mydata:presentation="2.5" mydata:layouttype="undefined" mydata:specialfontid="undefined" mydata:id1="779" mydata:id2="792" mydata:companyname="medic ai" mydata:companytagline="" version="1.1" xmlns="http://www.w3.org/2000/svg" xmlns:xlink="http://www.w3.org/1999/xlink" viewBox="0 0 550 470"><g fill="#0092bc" fill-rule="nonzero" stroke="none" stroke-width="1" stroke-linecap="butt" stroke-linejoin="miter" stroke-miterlimit="10" stroke-dasharray="" stroke-dashoffset="0" font-family="none" font-weight="none" font-size="none" text-anchor="none" style="mix-blend-mode: normal"><g data-paper-data="{&quot;isGlobalGroup&quot;:true,&quot;bounds&quot;:{&quot;x&quot;:65,&quot;y&quot;:191.71029448779262,&quot;width&quot;:420,&quot;height&quot;:86.57941102441481}}"><g data-paper-data="{&quot;isPrimaryText&quot;:true}"><path d="M103.58545,250.80418c-1.12761,-0.63428 -2.3257,-0.95142 -3.59426,-0.95142c-1.90284,0 -3.52379,0.6519 -4.86282,1.9557c-1.33904,1.3038 -2.00856,2.9776 -2.00856,5.02139c0,3.73521 1.79713,6.09615 5.39139,7.08281c0.70476,0.14095 1.23332,0.21143 1.5857,0.21143c1.83237,0 3.47093,-0.72238 4.91568,-2.16713c1.44475,-1.44475 2.16713,-3.11855 2.16713,-5.02139c0,-0.56381 -0.10571,-1.16285 -0.31714,-1.79713c-0.56381,-1.97332 -1.65618,-3.41807 -3.27712,-4.33426zM65.73999,194.24742c0.42285,-0.49333 1.05714,-0.73999 1.90284,-0.73999c0.84571,0 1.51523,0.2819 2.00856,0.84571c0.70476,0.84571 2.18475,3.48855 4.43997,7.92852c2.46665,4.86282 6.73043,13.07324 12.79134,24.63126l9.09137,17.65417l3.80569,-0.10571h3.9114l1.47999,-2.64284c0.42285,-0.84571 7.01233,-12.57991 19.76844,-35.20262c4.6514,-8.24566 7.32947,-12.50944 8.03423,-12.79134c0.42285,-0.14095 0.73999,-0.21143 0.95142,-0.21143c1.26856,0 2.18475,0.52857 2.74855,1.5857c0.35238,0.56381 0.52857,12.54468 0.52857,35.94261v7.08281c0,14.30657 -0.10571,22.88699 -0.31714,25.74125c-0.21143,2.85427 -0.84571,4.2814 -1.90284,4.2814h-0.73999h-0.63428c-1.05714,0 -1.69142,-0.98666 -1.90284,-2.95998c-0.21143,-1.97332 -0.31714,-7.92852 -0.31714,-17.86559v-10.46564c0,-19.23987 -0.14095,-28.8598 -0.42285,-28.8598h-0.10571c-0.56381,0.56381 -4.40473,7.13567 -11.52278,19.71558c-7.11805,12.57991 -10.67707,19.04606 -10.67707,19.39844c0,0.21143 0.49333,1.05714 1.47999,2.53713c1.62094,2.39617 2.43141,4.79235 2.43141,7.18852c0,0.63428 -0.03524,1.09237 -0.10571,1.37428c-0.49333,3.31236 -1.9557,6.00805 -4.38711,8.08709c-2.43141,2.07903 -5.16235,3.11855 -8.1928,3.11855c-3.03046,0 -5.67329,-1.0219 -7.92852,-3.06569c-2.95998,-2.67808 -4.43997,-5.84948 -4.43997,-9.51422c0,-2.67808 0.98666,-5.46187 2.95998,-8.35137c0.14095,-0.14095 0.21143,-0.35238 0.21143,-0.63428c0,-0.56381 -0.88095,-2.64284 -2.64284,-6.2371c-2.95998,-5.91996 -6.48377,-12.77372 -10.57136,-20.56129c-4.08759,-7.78757 -6.27234,-11.8223 -6.55424,-12.1042h-0.10571c-0.2819,0 -0.42285,9.51422 -0.42285,28.54266c0,19.4513 -0.24666,29.49409 -0.73999,30.12837c-0.42285,0.63428 -1.05714,0.95142 -1.90284,0.95142c-0.77523,0 -1.40951,-0.24666 -1.90284,-0.73999c-0.21143,-0.21143 -0.37,-0.58142 -0.47571,-1.10999c-0.10571,-0.52857 -0.19381,-2.11427 -0.26428,-4.75711c-0.07048,-2.64284 -0.10571,-6.18424 -0.10571,-10.62421c0,-4.43997 0,-11.20564 0,-20.297c0,-17.05512 0.03524,-27.37981 0.10571,-30.97408c0.07048,-3.59426 0.2819,-5.56758 0.63428,-5.91996z" data-paper-data="{&quot;glyphName&quot;:&quot;M&quot;,&quot;glyphIndex&quot;:0,&quot;firstGlyphOfWord&quot;:true,&quot;word&quot;:1}"></path><path d="M163.41933,222.47294c-0.98666,-0.70476 -2.11427,-1.05714 -3.38283,-1.05714c-2.39617,0 -4.43997,1.12761 -6.13139,3.38283c-0.63428,0.84571 -0.95142,2.07903 -0.95142,3.69997c0,1.76189 0.35238,3.13617 1.05714,4.12283c1.40951,1.97332 3.3476,2.95998 5.81425,2.95998c1.62094,0 3.10093,-0.49333 4.43997,-1.47999c1.83237,-1.40951 2.74855,-3.17141 2.74855,-5.28568c0,-2.6076 -1.19809,-4.72187 -3.59426,-6.34281zM149.67657,192.76743c0.14095,-0.07048 3.87616,-0.10571 11.20564,-0.10571h8.66851c8.73899,0.07048 14.18324,0.17619 16.33275,0.31714c2.14951,0.14095 3.43569,0.38762 3.85855,0.73999c0.56381,0.35238 0.84571,0.98666 0.84571,1.90284c0,0.84571 -0.2819,1.51523 -0.84571,2.00856c-0.56381,0.49333 -3.10093,0.73999 -7.61138,0.73999c-4.08759,0 -7.71709,-0.03524 -10.8885,-0.10571l-17.65417,-0.21143v19.34558l1.5857,-0.63428c1.12761,-0.42285 2.64284,-0.63428 4.54568,-0.63428c5.14473,0 8.91518,2.3257 11.31135,6.9771l1.47999,2.85427h5.07425c2.46665,0 3.94664,0.05286 4.43997,0.15857c0.49333,0.10571 0.95142,0.44047 1.37428,1.00428c0.56381,0.63428 0.84571,1.19809 0.84571,1.69142c0,0.49333 -0.24666,1.0219 -0.73999,1.5857c-0.42285,0.49333 -0.95142,0.81047 -1.5857,0.95142c-0.63428,0.14095 -2.14951,0.24666 -4.54568,0.31714l-5.28568,0.21143l-0.84571,1.90284c-0.49333,1.26856 -1.47999,2.55474 -2.95998,3.85855c-1.47999,1.3038 -2.92474,2.20237 -4.33426,2.6957c-1.62094,0.49333 -3.13617,0.73999 -4.54568,0.73999c-1.47999,0 -2.74855,-0.21143 -3.80569,-0.63428l-1.90284,-0.63428c-0.07048,0 -0.10571,3.84093 -0.10571,11.52278v11.62849h18.28845c12.05135,0 18.49987,0.14095 19.34558,0.42285c1.05714,0.42285 1.5857,1.19809 1.5857,2.3257c0,1.05714 -0.52857,1.86761 -1.5857,2.43141c-0.84571,0.42285 -7.96376,0.63428 -21.35414,0.63428h-20.08558l-1.05714,-1.05714l-0.95142,-1.05714v-35.51976c0,-23.60936 0.21143,-35.87214 0.63428,-36.78832c0.56381,-0.98666 0.98666,-1.51523 1.26856,-1.5857z" data-paper-data="{&quot;glyphName&quot;:&quot;E&quot;,&quot;glyphIndex&quot;:1,&quot;word&quot;:1}"></path><path d="M220.0818,237.48427c2.53713,-1.19809 3.80569,-3.20664 3.80569,-6.02567c0,-1.90284 -0.6519,-3.59426 -1.9557,-5.07425c-1.3038,-1.47999 -2.9776,-2.21998 -5.02139,-2.21998c-2.11427,0 -3.82331,0.72238 -5.12711,2.16713c-1.3038,1.44475 -1.9557,3.11855 -1.9557,5.02139c0,2.8895 1.3038,4.9333 3.9114,6.13139c1.26856,0.63428 2.3257,0.95142 3.17141,0.95142c0.84571,0 1.90284,-0.31714 3.17141,-0.95142zM244.39592,199.21596c-3.24188,-0.77523 -6.20186,-1.16285 -8.87994,-1.16285c-4.6514,0 -9.09137,0.95142 -13.31991,2.85427l-2.85427,1.37428v16.3856l1.90284,0.73999c2.53713,0.91618 4.52806,2.48427 5.97282,4.70425c1.44475,2.21998 2.16713,4.59854 2.16713,7.13567c0,2.8895 -0.88095,5.46187 -2.64284,7.71709c-0.77523,0.98666 -1.90284,1.9557 -3.38283,2.90712c-1.47999,0.95142 -2.57236,1.42713 -3.27712,1.42713c-0.49333,0 -0.73999,2.6076 -0.73999,7.8228v7.71709l2.95998,1.26856c4.36949,1.90284 8.77423,2.85427 13.2142,2.85427c7.32947,0 13.97181,-2.27284 19.92701,-6.81853c5.9552,-4.54568 9.88422,-10.5185 11.78706,-17.91845c0.49333,-1.97332 0.73999,-4.43997 0.73999,-7.39995c0,-3.38283 -0.31714,-6.2371 -0.95142,-8.5628c-1.40951,-5.49711 -4.17569,-10.32469 -8.29851,-14.48276c-4.12283,-4.15807 -8.89756,-7.01233 -14.32419,-8.5628zM214.90184,193.40171c0.56381,-0.56381 1.12761,-0.84571 1.69142,-0.84571c0.56381,0 1.16285,0.26428 1.79713,0.79285c0.63428,0.52857 0.95142,1.03952 0.95142,1.53285c0,0.49333 0.14095,0.73999 0.42285,0.73999c0.42285,0 2.21998,-0.49333 5.39139,-1.47999c3.03046,-0.98666 6.48377,-1.47999 10.35993,-1.47999c7.8228,0 14.7999,2.0438 20.93129,6.13139c3.17141,2.11427 6.09615,4.84521 8.77423,8.1928c2.67808,3.3476 4.68663,6.74805 6.02567,10.20136c1.55047,4.01712 2.3257,8.35137 2.3257,13.00277c0,8.24566 -2.18475,15.50466 -6.55424,21.77699c-1.97332,2.8895 -4.58092,5.62044 -7.8228,8.1928c-3.24188,2.57236 -6.37805,4.42235 -9.40851,5.54996c-5.2152,1.90284 -9.90184,2.85427 -14.0599,2.85427c-3.87616,0 -7.85804,-0.66952 -11.94563,-2.00856l-3.9114,-1.26856l-0.95142,1.26856c-0.63428,0.84571 -1.44475,1.26856 -2.43141,1.26856c-0.77523,0 -1.37428,-0.31714 -1.79713,-0.95142c-0.49333,-0.63428 -0.73999,-4.68663 -0.73999,-12.15706v-11.20564l-2.00856,-0.73999c-2.25522,-0.91618 -4.06997,-2.44903 -5.44425,-4.59854c-1.37428,-2.14951 -2.06141,-4.45759 -2.06141,-6.92424c0,-2.6076 0.66952,-4.9333 2.00856,-6.9771c1.33904,-2.0438 3.20664,-3.59426 5.60282,-4.6514l1.90284,-0.84571v-12.15706c0,-5.70853 0.05286,-9.23232 0.15857,-10.57136c0.10571,-1.33904 0.37,-2.21998 0.79285,-2.64284z" data-paper-data="{&quot;glyphName&quot;:&quot;D&quot;,&quot;glyphIndex&quot;:2,&quot;word&quot;:1}"></path><path d="M285.09565,192.87314c0.42285,-0.49333 1.09237,-0.73999 2.00856,-0.73999c0.77523,0 1.47999,0.21143 2.11427,0.63428l0.95142,0.73999v36.36547c0,17.19607 -0.03524,27.60886 -0.10571,31.23836c-0.07048,3.6295 -0.2819,5.72615 -0.63428,6.28996c-0.49333,0.91618 -1.23332,1.37428 -2.21998,1.37428h-0.73999c-1.05714,0 -1.6738,-1.40951 -1.84999,-4.22854c-0.17619,-2.81903 -0.26428,-11.76944 -0.26428,-26.85125v-7.50566c0,-17.19607 0.03524,-27.62648 0.10571,-31.29122c0.07048,-3.66474 0.2819,-5.67329 0.63428,-6.02567z" data-paper-data="{&quot;glyphName&quot;:&quot;I&quot;,&quot;glyphIndex&quot;:3,&quot;word&quot;:1}"></path><path d="M347.57236,259.78983c-1.19809,-0.70476 -2.43141,-1.05714 -3.69997,-1.05714c-1.69142,0 -3.31236,0.70476 -4.86282,2.11427c-1.40951,1.33904 -2.11427,2.99522 -2.11427,4.96854c0,2.8895 1.26856,4.96854 3.80569,6.2371c0.84571,0.42285 1.90284,0.63428 3.17141,0.63428c1.55047,0 2.81903,-0.2819 3.80569,-0.84571c2.18475,-1.33904 3.27712,-3.3476 3.27712,-6.02567c0,-2.74855 -1.12761,-4.75711 -3.38283,-6.02567zM330.12962,192.66172c2.25522,-0.63428 4.47521,-0.95142 6.65995,-0.95142c1.47999,0 2.74855,0.03524 3.80569,0.10571c4.6514,0.14095 7.39995,0.35238 8.24566,0.63428l1.5857,0.52857v2.95998c0,1.83237 -0.14095,2.74855 -0.42285,2.74855c-0.07048,0 -0.17619,-0.03524 -0.31714,-0.10571c-2.18475,-0.98666 -5.46187,-1.47999 -9.83136,-1.47999c-0.21143,0 -0.54619,0.01762 -1.00428,0.05286c-0.45809,0.03524 -0.75761,0.05286 -0.89857,0.05286c-7.75233,0.49333 -14.35943,3.13617 -19.82129,7.92852c-5.46187,4.79235 -9.03851,10.67707 -10.72993,17.65417c-0.49333,2.18475 -0.73999,4.75711 -0.73999,7.71709c0,2.81903 0.24666,5.35615 0.73999,7.61138c2.11427,8.38661 6.69519,15.01133 13.74276,19.87415c3.52379,2.3257 6.55424,3.77045 9.09137,4.33426c0.21143,0.07048 0.49333,0.10571 0.84571,0.10571c0.42285,0 0.91618,-0.59904 1.47999,-1.79713c1.05714,-2.3257 2.62522,-4.12283 4.70425,-5.39139c2.07903,-1.26856 4.31664,-1.90284 6.71281,-1.90284c3.10093,0 5.77901,0.98666 8.03423,2.95998c2.95998,2.67808 4.43997,5.84948 4.43997,9.51422c0,5.14473 -2.43141,8.95042 -7.29424,11.41707c-1.62094,0.70476 -3.3476,1.05714 -5.17996,1.05714c-1.83237,0 -3.55902,-0.35238 -5.17996,-1.05714c-3.03046,-1.55047 -5.17996,-3.73521 -6.44853,-6.55424c-0.49333,-1.05714 -0.89857,-1.74427 -1.21571,-2.06141c-0.31714,-0.31714 -1.10999,-0.6519 -2.37856,-1.00428c-6.48377,-1.83237 -12.06897,-5.17996 -16.7556,-10.04279c-4.68663,-4.86282 -7.94614,-10.64183 -9.7785,-17.33702c-0.70476,-2.95998 -1.05714,-6.27234 -1.05714,-9.93708c0,-3.73521 0.35238,-7.01233 1.05714,-9.83136c1.83237,-6.76567 5.26806,-12.63277 10.30707,-17.60131c5.03901,-4.96854 10.90612,-8.36899 17.60131,-10.20136z" data-paper-data="{&quot;glyphName&quot;:&quot;C&quot;,&quot;glyphIndex&quot;:4,&quot;lastGlyphOfWord&quot;:true,&quot;word&quot;:1}"></path><path d="M440.91744,198.68739c-1.55047,-0.98666 -2.99522,-1.47999 -4.33426,-1.47999c-0.84571,0 -1.5857,0.14095 -2.21998,0.42285c-3.24188,1.19809 -4.86282,3.38283 -4.86282,6.55424c0,1.90284 0.6519,3.48855 1.9557,4.75711c1.3038,1.26856 2.94236,1.90284 4.91568,1.90284c3.73521,0 6.06091,-1.79713 6.9771,-5.39139c0.14095,-0.42285 0.21143,-1.05714 0.21143,-1.90284c0,-1.97332 -0.88095,-3.59426 -2.64284,-4.86282zM432.56607,192.34458c1.26856,-0.35238 2.46665,-0.52857 3.59426,-0.52857c2.39617,0 4.66902,0.61666 6.81853,1.84999c2.14951,1.23332 3.78807,2.83665 4.91568,4.80997c0.70476,1.33904 1.05714,3.06569 1.05714,5.17996c0,2.39617 -0.42285,4.43997 -1.26856,6.13139l-1.16285,2.21998l9.09137,22.72842c6.27234,15.36371 9.8666,24.27888 10.78278,26.74553l1.69142,4.12283l-0.95142,1.26856c-0.56381,0.77523 -1.37428,1.16285 -2.43141,1.16285c-1.05714,0 -1.86761,-0.52857 -2.43141,-1.5857c-0.42285,-0.70476 -3.98188,-9.44375 -10.67707,-26.21696l-9.83136,-24.52555l-1.47999,0.31714c-1.05714,0.21143 -2.25522,0.31714 -3.59426,0.31714c-1.47999,0 -2.74855,-0.10571 -3.80569,-0.31714l-1.79713,-0.31714l-9.09137,23.67984c-5.07425,13.24943 -8.2809,21.37176 -9.61993,24.36698c-1.33904,2.99522 -2.39617,4.59854 -3.17141,4.80997h-0.31714c-0.70476,0 -1.37428,-0.29952 -2.00856,-0.89857c-0.63428,-0.59904 -0.95142,-1.25094 -0.95142,-1.9557c0,-0.77523 0.73999,-3.06569 2.21998,-6.87138c0.98666,-2.46665 2.8895,-7.39995 5.70853,-14.7999c2.81903,-7.39995 5.28568,-13.74276 7.39995,-19.02844l5.17996,-13.10848l-1.16285,-2.64284c-0.84571,-2.0438 -1.26856,-3.80569 -1.26856,-5.28568c0,-1.62094 0.35238,-3.17141 1.05714,-4.6514c0.63428,-1.40951 1.69142,-2.80141 3.17141,-4.17569c1.47999,-1.37428 2.92474,-2.30808 4.33426,-2.80141z" data-paper-data="{&quot;glyphName&quot;:&quot;A&quot;,&quot;glyphIndex&quot;:5,&quot;firstGlyphOfWord&quot;:true,&quot;word&quot;:2}"></path><path d="M479.92575,192.87314c0.42285,-0.49333 1.09237,-0.73999 2.00856,-0.73999c0.77523,0 1.47999,0.21143 2.11427,0.63428l0.95142,0.73999v36.36547c0,17.19607 -0.03524,27.60886 -0.10571,31.23836c-0.07048,3.6295 -0.2819,5.72615 -0.63428,6.28996c-0.49333,0.91618 -1.23332,1.37428 -2.21998,1.37428h-0.73999c-1.05714,0 -1.6738,-1.40951 -1.84999,-4.22854c-0.17619,-2.81903 -0.26428,-11.76944 -0.26428,-26.85125v-7.50566c0,-17.19607 0.03524,-27.62648 0.10571,-31.29122c0.07048,-3.66474 0.2819,-5.67329 0.63428,-6.02567z" data-paper-data="{&quot;glyphName&quot;:&quot;I&quot;,&quot;glyphIndex&quot;:6,&quot;lastGlyphOfWord&quot;:true,&quot;word&quot;:2}"></path></g></g></g></svg>